<svg width="16" height="16" viewBox="0 0 16 16" fill="none" xmlns="http://www.w3.org/2000/svg">
<g clip-path="url(#clip0_142_5197)">
<path d="M1.33301 2.66667C1.33301 2.48986 1.40325 2.32029 1.52827 2.19526C1.65329 2.07024 1.82286 2 1.99967 2H13.9997C14.1765 2 14.3461 2.07024 14.4711 2.19526C14.5961 2.32029 14.6663 2.48986 14.6663 2.66667V6.33333C14.2243 6.33333 13.8004 6.50893 13.4878 6.82149C13.1753 7.13405 12.9997 7.55797 12.9997 8C12.9997 8.44203 13.1753 8.86595 13.4878 9.17851C13.8004 9.49107 14.2243 9.66667 14.6663 9.66667V13.3333C14.6663 13.5101 14.5961 13.6797 14.4711 13.8047C14.3461 13.9298 14.1765 14 13.9997 14H1.99967C1.82286 14 1.65329 13.9298 1.52827 13.8047C1.40325 13.6797 1.33301 13.5101 1.33301 13.3333V2.66667ZM5.38967 12.6667C5.45839 12.4713 5.58604 12.3022 5.75501 12.1825C5.92399 12.0628 6.12594 11.9985 6.33301 11.9985C6.54007 11.9985 6.74203 12.0628 6.911 12.1825C7.07997 12.3022 7.20763 12.4713 7.27634 12.6667H13.333V10.688C12.8322 10.4398 12.4107 10.0566 12.116 9.58169C11.8213 9.10676 11.6652 8.55894 11.6652 8C11.6652 7.44107 11.8213 6.89324 12.116 6.41831C12.4107 5.94337 12.8322 5.5602 13.333 5.312V3.33333H7.27634C7.20763 3.52866 7.07997 3.69785 6.911 3.81753C6.74203 3.93721 6.54007 4.00149 6.33301 4.00149C6.12594 4.00149 5.92399 3.93721 5.75501 3.81753C5.58604 3.69785 5.45839 3.52866 5.38967 3.33333H2.66634V12.6667H5.38967ZM6.33301 7.33333C6.06779 7.33333 5.81344 7.22798 5.6259 7.04044C5.43836 6.8529 5.33301 6.59855 5.33301 6.33333C5.33301 6.06812 5.43836 5.81376 5.6259 5.62623C5.81344 5.43869 6.06779 5.33333 6.33301 5.33333C6.59822 5.33333 6.85258 5.43869 7.04011 5.62623C7.22765 5.81376 7.33301 6.06812 7.33301 6.33333C7.33301 6.59855 7.22765 6.8529 7.04011 7.04044C6.85258 7.22798 6.59822 7.33333 6.33301 7.33333ZM6.33301 10.6667C6.06779 10.6667 5.81344 10.5613 5.6259 10.3738C5.43836 10.1862 5.33301 9.93188 5.33301 9.66667C5.33301 9.40145 5.43836 9.1471 5.6259 8.95956C5.81344 8.77202 6.06779 8.66667 6.33301 8.66667C6.59822 8.66667 6.85258 8.77202 7.04011 8.95956C7.22765 9.1471 7.33301 9.40145 7.33301 9.66667C7.33301 9.93188 7.22765 10.1862 7.04011 10.3738C6.85258 10.5613 6.59822 10.6667 6.33301 10.6667Z" fill="#09121F"/>
</g>
<defs>
<clipPath id="clip0_142_5197">
<rect width="16" height="16" fill="white"/>
</clipPath>
</defs>
</svg>
