<svg width="16" height="16" viewBox="0 0 16 16" fill="none" xmlns="http://www.w3.org/2000/svg">
<g clip-path="url(#clip0_142_5193)">
<path d="M13.3333 14.6667H2.66667C2.48986 14.6667 2.32029 14.5964 2.19526 14.4714C2.07024 14.3464 2 14.1768 2 14V2.00001C2 1.8232 2.07024 1.65363 2.19526 1.52861C2.32029 1.40358 2.48986 1.33334 2.66667 1.33334H13.3333C13.5101 1.33334 13.6797 1.40358 13.8047 1.52861C13.9298 1.65363 14 1.8232 14 2.00001V14C14 14.1768 13.9298 14.3464 13.8047 14.4714C13.6797 14.5964 13.5101 14.6667 13.3333 14.6667ZM12.6667 13.3333V2.66668H3.33333V13.3333H12.6667ZM5.33333 6.00001H10.6667V7.33334H5.33333V6.00001ZM5.33333 8.66668H10.6667V10H5.33333V8.66668Z" fill="#09121F"/>
</g>
<defs>
<clipPath id="clip0_142_5193">
<rect width="16" height="16" fill="white"/>
</clipPath>
</defs>
</svg>
